<svg width="32" height="32" fill="none" xmlns="http://www.w3.org/2000/svg"><path d="M20.8 16a4.8 4.8 0 11-9.6 0c0-.274.029-.54.078-.8H9.6v6.395c0 .445.36.805.805.805h11.192a.805.805 0 00.803-.805V15.2h-1.678c.05.26.078.527.078.8zM16 19.2a3.202 3.202 0 10-.002-6.403A3.202 3.202 0 0016 19.2zm3.84-6.56h1.918a.482.482 0 00.482-.48v-1.918a.481.481 0 00-.482-.482H19.84a.482.482 0 00-.482.482v1.918c.002.264.218.48.482.48zM16 .64a15.36 15.36 0 100 30.72A15.36 15.36 0 0016 .64zm8 21.582C24 23.2 23.2 24 22.222 24H9.777C8.8 24 8 23.2 8 22.223V9.777C8 8.8 8.8 8 9.777 8h12.445C23.2 8 24 8.8 24 9.778v12.444z" fill="#fff" fill-opacity=".3"/></svg>